<svg width="1170" height="66.102" viewBox="0 0 1170 66.102" xmlns="http://www.w3.org/2000/svg"><g id="svgGroup" stroke-linecap="round" fill-rule="evenodd" font-size="9pt" stroke="#dfbd24" stroke-width="mm" fill="#dfbd24" style="stroke:#dfbd24;stroke-width:mm;fill:#dfbd24"><path d="M 901.2 66.1 L 926.1 0 L 912.5 0 L 893.3 54 L 873.5 0 L 859.6 0 L 839.6 54 L 820.5 0 L 805.9 0 L 830.7 66.1 L 847.1 66.1 L 865.8 16 L 884.8 66.1 L 901.2 66.1 Z M 226.5 66.1 L 226.5 32.1 C 226.5 20.076 220.766 17.131 204.255 17.004 A 151.122 151.122 0 0 0 203.1 17 L 157.1 17 L 157.1 25.5 L 200 25.5 C 209.7 25.5 212.9 27.1 212.9 33.8 L 212.9 36.4 L 177.4 36.4 C 160.481 36.4 155.262 38.403 154.354 46.643 A 28.977 28.977 0 0 0 154.2 49.8 L 154.2 51.9 A 20.932 20.932 0 0 0 154.868 57.617 C 156.807 64.4 163.211 66.1 177.2 66.1 L 226.5 66.1 Z M 441.8 66.1 L 441.8 32.1 C 441.8 20.076 436.066 17.131 419.555 17.004 A 151.122 151.122 0 0 0 418.4 17 L 372.4 17 L 372.4 25.5 L 415.3 25.5 C 425 25.5 428.2 27.1 428.2 33.8 L 428.2 36.4 L 392.7 36.4 C 375.781 36.4 370.562 38.403 369.654 46.643 A 28.977 28.977 0 0 0 369.5 49.8 L 369.5 51.9 A 20.932 20.932 0 0 0 370.168 57.617 C 372.107 64.4 378.511 66.1 392.5 66.1 L 441.8 66.1 Z M 298.3 34.3 L 298.3 66.1 L 311.9 66.1 L 311.9 32.1 A 20.18 20.18 0 0 0 311.097 26.02 C 308.838 18.887 301.71 17 288.4 17 L 266.1 17 C 256 17 252.6 20.3 251.1 22.6 L 251.1 17 L 237.4 17 L 237.4 66.1 L 251.1 66.1 L 251.1 33.9 C 251.5 29 253.7 26.4 260.6 26.4 L 286.7 26.4 A 37.395 37.395 0 0 1 290.545 26.572 C 295.396 27.079 297.728 28.779 298.206 32.65 A 13.489 13.489 0 0 1 298.3 34.3 Z M 576.1 48.8 L 576.1 17 L 562.5 17 L 562.5 51 A 19.894 19.894 0 0 0 563.32 57.094 C 565.564 64.056 572.518 66.043 585.43 66.099 A 131.849 131.849 0 0 0 586 66.1 L 606.8 66.1 A 39.477 39.477 0 0 0 610.488 65.938 C 617.841 65.247 620.511 62.497 621.9 60.5 L 621.9 66.1 L 635.5 66.1 L 635.5 17 L 621.9 17 L 621.9 49.2 C 621.55 53.574 619.823 56.034 614.711 56.582 A 22.699 22.699 0 0 1 612.3 56.7 L 587.7 56.7 A 37.395 37.395 0 0 1 583.855 56.528 C 579.004 56.021 576.672 54.321 576.194 50.45 A 13.489 13.489 0 0 1 576.1 48.8 Z M 1170 66.1 L 1170 0 L 1156.4 0 L 1156.4 17 L 1121.3 17 C 1106.585 17 1099.696 19.071 1098.212 27.918 A 25.378 25.378 0 0 0 1097.9 32.1 L 1097.9 51 A 24.338 24.338 0 0 0 1098.505 56.858 C 1100.395 64.418 1106.945 66.1 1121.3 66.1 L 1170 66.1 Z M 64.9 66.1 L 79.4 66.1 L 48.3 0 L 31.1 0 L 0 66.1 L 15 66.1 L 20.7 52.9 L 59.1 52.9 L 64.9 66.1 Z M 544.6 66.1 L 559.1 66.1 L 528 0 L 510.8 0 L 479.7 66.1 L 494.7 66.1 L 500.4 52.9 L 538.8 52.9 L 544.6 66.1 Z M 123 66.1 L 123 56.7 L 107.9 56.7 A 50.061 50.061 0 0 1 104.202 56.584 C 99.371 56.221 97.158 54.925 96.511 51.513 A 14.131 14.131 0 0 1 96.3 48.9 L 96.3 25.9 L 117.6 25.9 L 117.6 17 L 96.3 17 L 96.3 2.7 L 82.6 2.7 L 82.6 51 C 82.6 62.923 88.331 65.964 104.832 66.095 A 146.095 146.095 0 0 0 106 66.1 L 123 66.1 Z M 362.8 66.1 L 362.8 56.7 L 347.7 56.7 A 50.061 50.061 0 0 1 344.002 56.584 C 339.171 56.221 336.958 54.925 336.311 51.513 A 14.131 14.131 0 0 1 336.1 48.9 L 336.1 25.9 L 357.4 25.9 L 357.4 17 L 336.1 17 L 336.1 2.7 L 322.4 2.7 L 322.4 51 C 322.4 62.923 328.131 65.964 344.632 66.095 A 146.095 146.095 0 0 0 345.8 66.1 L 362.8 66.1 Z M 686.9 66.1 L 686.9 56.7 L 671.8 56.7 A 50.061 50.061 0 0 1 668.102 56.584 C 663.271 56.221 661.058 54.925 660.411 51.513 A 14.131 14.131 0 0 1 660.2 48.9 L 660.2 25.9 L 681.5 25.9 L 681.5 17 L 660.2 17 L 660.2 2.7 L 646.5 2.7 L 646.5 51 C 646.5 62.923 652.231 65.964 668.732 66.095 A 146.095 146.095 0 0 0 669.9 66.1 L 686.9 66.1 Z M 768 51 L 768 32.1 A 22.101 22.101 0 0 0 767.296 26.102 C 765.278 18.986 758.752 17.104 745.55 17.004 A 153.007 153.007 0 0 0 744.4 17 L 716.9 17 C 699.7 17 693.3 19.7 693.3 32.1 L 693.3 51 A 23.246 23.246 0 0 0 693.945 56.894 C 695.893 64.274 702.414 66.005 715.739 66.096 A 170.702 170.702 0 0 0 716.9 66.1 L 744.4 66.1 A 106.612 106.612 0 0 0 752.013 65.871 C 763.528 65.035 768 61.616 768 51 Z M 1001 51 L 1001 32.1 A 22.101 22.101 0 0 0 1000.296 26.102 C 998.278 18.986 991.752 17.104 978.55 17.004 A 153.007 153.007 0 0 0 977.4 17 L 949.9 17 C 932.7 17 926.3 19.7 926.3 32.1 L 926.3 51 A 23.246 23.246 0 0 0 926.945 56.894 C 928.893 64.274 935.414 66.005 948.739 66.096 A 170.702 170.702 0 0 0 949.9 66.1 L 977.4 66.1 A 106.612 106.612 0 0 0 985.013 65.871 C 996.528 65.035 1001 61.616 1001 51 Z M 1025.4 66.1 L 1025.4 33.9 C 1025.767 29.497 1027.733 26.86 1032.919 26.455 A 19.016 19.016 0 0 1 1034.4 26.4 L 1065.6 26.4 L 1065.6 17 L 1040.5 17 A 41.592 41.592 0 0 0 1037.2 17.124 C 1029.173 17.764 1026.734 20.732 1025.401 22.598 A 26.691 26.691 0 0 0 1025.4 22.6 L 1025.4 17 L 1011.8 17 L 1011.8 66.1 L 1025.4 66.1 Z M 144.5 66.1 L 144.5 0 L 130.9 0 L 130.9 66.1 L 144.5 66.1 Z M 1087.4 66.1 L 1087.4 0 L 1073.8 0 L 1073.8 66.1 L 1087.4 66.1 Z M 1156.4 56.7 L 1123.5 56.7 C 1115.771 56.7 1112.467 55.594 1111.688 51.29 A 13.496 13.496 0 0 1 1111.5 48.9 L 1111.5 34.6 A 11.237 11.237 0 0 1 1111.912 31.356 C 1112.835 28.303 1115.351 26.953 1119.867 26.543 A 40.528 40.528 0 0 1 1123.5 26.4 L 1156.4 26.4 L 1156.4 56.7 Z M 707 48.9 L 707 34.3 A 10.947 10.947 0 0 1 707.397 31.147 C 708.259 28.292 710.578 26.977 714.87 26.557 A 38.706 38.706 0 0 1 718.6 26.4 L 742.7 26.4 A 37.395 37.395 0 0 1 746.545 26.572 C 751.396 27.079 753.728 28.779 754.206 32.65 A 13.489 13.489 0 0 1 754.3 34.3 L 754.3 48.9 A 13.241 13.241 0 0 1 754.008 51.903 C 753.072 55.885 749.788 56.7 742.7 56.7 L 718.6 56.7 C 711.307 56.7 708.09 55.857 707.24 51.696 A 14.09 14.09 0 0 1 707 48.9 Z M 940 48.9 L 940 34.3 A 10.947 10.947 0 0 1 940.397 31.147 C 941.259 28.292 943.578 26.977 947.87 26.557 A 38.706 38.706 0 0 1 951.6 26.4 L 975.7 26.4 A 37.395 37.395 0 0 1 979.545 26.572 C 984.396 27.079 986.728 28.779 987.206 32.65 A 13.489 13.489 0 0 1 987.3 34.3 L 987.3 48.9 A 13.241 13.241 0 0 1 987.008 51.903 C 986.072 55.885 982.788 56.7 975.7 56.7 L 951.6 56.7 C 944.307 56.7 941.09 55.857 940.24 51.696 A 14.09 14.09 0 0 1 940 48.9 Z M 167.5 50.7 L 167.5 49.2 A 9.023 9.023 0 0 1 167.893 46.333 C 168.95 43.189 172.247 42.3 179.1 42.3 L 212.9 42.3 L 212.9 57.6 L 179.1 57.6 A 50.545 50.545 0 0 1 175.469 57.487 C 170.349 57.114 168.078 55.742 167.599 52.275 A 11.538 11.538 0 0 1 167.5 50.7 Z M 382.8 50.7 L 382.8 49.2 A 9.023 9.023 0 0 1 383.193 46.333 C 384.25 43.189 387.547 42.3 394.4 42.3 L 428.2 42.3 L 428.2 57.6 L 394.4 57.6 A 50.545 50.545 0 0 1 390.769 57.487 C 385.649 57.114 383.378 55.742 382.899 52.275 A 11.538 11.538 0 0 1 382.8 50.7 Z M 39.8 9.1 L 55.1 43.8 L 24.7 43.8 L 39.8 9.1 Z M 519.5 9.1 L 534.8 43.8 L 504.4 43.8 L 519.5 9.1 Z" vector-effect="non-scaling-stroke"/></g></svg>